{
    "asset" : {
        "generator" : "Khronos glTF Blender I/O v3.2.40",
        "version" : "2.0"
    },
    "scene" : 0,
    "scenes" : [
        {
            "name" : "Scene",
            "nodes" : [
                0,
                1,
                2,
                3,
                4,
                5,
                6
            ]
        }
    ],
    "nodes" : [
        {
            "mesh" : 0,
            "name" : "Cube",
            "scale" : [
                1.8114973306655884,
                0.6494871377944946,
                1
            ]
        },
        {
            "mesh" : 1,
            "name" : "Cube.001",
            "scale" : [
                0.6339624524116516,
                0.5408565998077393,
                0.8639130592346191
            ],
            "translation" : [
                0.8467298150062561,
                0.704221785068512,
                0.015993747860193253
            ]
        },
        {
            "mesh" : 2,
            "name" : "Cube.002",
            "scale" : [
                0.6539604663848877,
                0.5408565998077393,
                0.8639130592346191
            ],
            "translation" : [
                -0.8015241622924805,
                0.6986766457557678,
                -0.0033695101737976074
            ]
        },
        {
            "mesh" : 3,
            "name" : "Cube.003",
            "scale" : [
                0.17640060186386108,
                0.04684361442923546,
                0.17640060186386108
            ],
            "translation" : [
                -1.1465721130371094,
                1.2589017152786255,
                -0.5977543592453003
            ]
        },
        {
            "mesh" : 4,
            "name" : "Cube.004",
            "scale" : [
                0.17640060186386108,
                0.04684361442923546,
                0.17640060186386108
            ],
            "translation" : [
                1.1749885082244873,
                1.2856773138046265,
                -0.5628207921981812
            ]
        },
        {
            "mesh" : 5,
            "name" : "Cube.005",
            "scale" : [
                1.8114973306655884,
                0.6494871377944946,
                1
            ]
        },
        {
            "mesh" : 6,
            "name" : "Cube.006",
            "scale" : [
                1.8114973306655884,
                0.6494871377944946,
                1
            ]
        }
    ],
    "materials" : [
        {
            "doubleSided" : true,
            "name" : "Material",
            "pbrMetallicRoughness" : {
                "baseColorFactor" : [
                    0.04321309179067612,
                    0.04321309179067612,
                    0.04321309179067612,
                    1
                ],
                "metallicFactor" : 0,
                "roughnessFactor" : 0.4000000059604645
            }
        },
        {
            "doubleSided" : true,
            "name" : "Material.002",
            "pbrMetallicRoughness" : {
                "baseColorFactor" : [
                    0.0016553516034036875,
                    0.0016553516034036875,
                    0.0016553516034036875,
                    1
                ],
                "metallicFactor" : 0,
                "roughnessFactor" : 0.5
            }
        },
        {
            "doubleSided" : true,
            "name" : "Material.001",
            "pbrMetallicRoughness" : {
                "baseColorFactor" : [
                    0.0016553516034036875,
                    0.0016553516034036875,
                    0.0016553516034036875,
                    1
                ],
                "metallicFactor" : 0,
                "roughnessFactor" : 0.5
            }
        },
        {
            "doubleSided" : true,
            "name" : "Material.003",
            "pbrMetallicRoughness" : {
                "baseColorFactor" : [
                    0.8000000715255737,
                    0.011041204445064068,
                    0.0035989535972476006,
                    1
                ],
                "metallicFactor" : 0,
                "roughnessFactor" : 0.5
            }
        },
        {
            "doubleSided" : true,
            "name" : "Material.004",
            "pbrMetallicRoughness" : {
                "baseColorFactor" : [
                    0.035449590533971786,
                    0.024913834407925606,
                    0.8000000715255737,
                    1
                ],
                "metallicFactor" : 0,
                "roughnessFactor" : 0.5
            }
        }
    ],
    "meshes" : [
        {
            "name" : "Cube",
            "primitives" : [
                {
                    "attributes" : {
                        "POSITION" : 0,
                        "NORMAL" : 1,
                        "TEXCOORD_0" : 2
                    },
                    "indices" : 3,
                    "material" : 0
                }
            ]
        },
        {
            "name" : "Cube.001",
            "primitives" : [
                {
                    "attributes" : {
                        "POSITION" : 4,
                        "NORMAL" : 5,
                        "TEXCOORD_0" : 6
                    },
                    "indices" : 7,
                    "material" : 1
                }
            ]
        },
        {
            "name" : "Cube.003",
            "primitives" : [
                {
                    "attributes" : {
                        "POSITION" : 8,
                        "NORMAL" : 9,
                        "TEXCOORD_0" : 10
                    },
                    "indices" : 7,
                    "material" : 2
                }
            ]
        },
        {
            "name" : "Cube.004",
            "primitives" : [
                {
                    "attributes" : {
                        "POSITION" : 11,
                        "NORMAL" : 12,
                        "TEXCOORD_0" : 13
                    },
                    "indices" : 14,
                    "material" : 3
                }
            ]
        },
        {
            "name" : "Cube.005",
            "primitives" : [
                {
                    "attributes" : {
                        "POSITION" : 15,
                        "NORMAL" : 16,
                        "TEXCOORD_0" : 17
                    },
                    "indices" : 14,
                    "material" : 4
                }
            ]
        },
        {
            "name" : "Cube.002",
            "primitives" : [
                {
                    "attributes" : {
                        "POSITION" : 18,
                        "NORMAL" : 19,
                        "TEXCOORD_0" : 20
                    },
                    "indices" : 21,
                    "material" : 0
                }
            ]
        },
        {
            "name" : "Cube.006",
            "primitives" : [
                {
                    "attributes" : {
                        "POSITION" : 22,
                        "NORMAL" : 23,
                        "TEXCOORD_0" : 24
                    },
                    "indices" : 25,
                    "material" : 0
                }
            ]
        }
    ],
    "accessors" : [
        {
            "bufferView" : 0,
            "componentType" : 5126,
            "count" : 52,
            "max" : [
                1,
                1.3975892066955566,
                1
            ],
            "min" : [
                -1,
                -1.2834360599517822,
                -1
            ],
            "type" : "VEC3"
        },
        {
            "bufferView" : 1,
            "componentType" : 5126,
            "count" : 52,
            "type" : "VEC3"
        },
        {
            "bufferView" : 2,
            "componentType" : 5126,
            "count" : 52,
            "type" : "VEC2"
        },
        {
            "bufferView" : 3,
            "componentType" : 5123,
            "count" : 96,
            "type" : "SCALAR"
        },
        {
            "bufferView" : 4,
            "componentType" : 5126,
            "count" : 24,
            "max" : [
                1,
                1,
                1
            ],
            "min" : [
                -1,
                -1,
                -1
            ],
            "type" : "VEC3"
        },
        {
            "bufferView" : 5,
            "componentType" : 5126,
            "count" : 24,
            "type" : "VEC3"
        },
        {
            "bufferView" : 6,
            "componentType" : 5126,
            "count" : 24,
            "type" : "VEC2"
        },
        {
            "bufferView" : 7,
            "componentType" : 5123,
            "count" : 36,
            "type" : "SCALAR"
        },
        {
            "bufferView" : 8,
            "componentType" : 5126,
            "count" : 24,
            "max" : [
                1,
                1,
                1
            ],
            "min" : [
                -1,
                -1,
                -1
            ],
            "type" : "VEC3"
        },
        {
            "bufferView" : 9,
            "componentType" : 5126,
            "count" : 24,
            "type" : "VEC3"
        },
        {
            "bufferView" : 10,
            "componentType" : 5126,
            "count" : 24,
            "type" : "VEC2"
        },
        {
            "bufferView" : 11,
            "componentType" : 5126,
            "count" : 48,
            "max" : [
                1,
                4.860037803649902,
                1
            ],
            "min" : [
                -1,
                -1,
                -1
            ],
            "type" : "VEC3"
        },
        {
            "bufferView" : 12,
            "componentType" : 5126,
            "count" : 48,
            "type" : "VEC3"
        },
        {
            "bufferView" : 13,
            "componentType" : 5126,
            "count" : 48,
            "type" : "VEC2"
        },
        {
            "bufferView" : 14,
            "componentType" : 5123,
            "count" : 84,
            "type" : "SCALAR"
        },
        {
            "bufferView" : 15,
            "componentType" : 5126,
            "count" : 48,
            "max" : [
                1,
                4.860037803649902,
                1
            ],
            "min" : [
                -1,
                -1,
                -1
            ],
            "type" : "VEC3"
        },
        {
            "bufferView" : 16,
            "componentType" : 5126,
            "count" : 48,
            "type" : "VEC3"
        },
        {
            "bufferView" : 17,
            "componentType" : 5126,
            "count" : 48,
            "type" : "VEC2"
        },
        {
            "bufferView" : 18,
            "componentType" : 5126,
            "count" : 4,
            "max" : [
                1,
                1,
                -1
            ],
            "min" : [
                -1,
                -1,
                -1
            ],
            "type" : "VEC3"
        },
        {
            "bufferView" : 19,
            "componentType" : 5126,
            "count" : 4,
            "type" : "VEC3"
        },
        {
            "bufferView" : 20,
            "componentType" : 5126,
            "count" : 4,
            "type" : "VEC2"
        },
        {
            "bufferView" : 21,
            "componentType" : 5123,
            "count" : 6,
            "type" : "SCALAR"
        },
        {
            "bufferView" : 22,
            "componentType" : 5126,
            "count" : 4,
            "max" : [
                0.8970544934272766,
                1.3975892066955566,
                0.8970544934272766
            ],
            "min" : [
                -0.8970544934272766,
                1.3975892066955566,
                -0.8970544934272766
            ],
            "type" : "VEC3"
        },
        {
            "bufferView" : 23,
            "componentType" : 5126,
            "count" : 4,
            "type" : "VEC3"
        },
        {
            "bufferView" : 24,
            "componentType" : 5126,
            "count" : 4,
            "type" : "VEC2"
        },
        {
            "bufferView" : 25,
            "componentType" : 5123,
            "count" : 6,
            "type" : "SCALAR"
        }
    ],
    "bufferViews" : [
        {
            "buffer" : 0,
            "byteLength" : 624,
            "byteOffset" : 0
        },
        {
            "buffer" : 0,
            "byteLength" : 624,
            "byteOffset" : 624
        },
        {
            "buffer" : 0,
            "byteLength" : 416,
            "byteOffset" : 1248
        },
        {
            "buffer" : 0,
            "byteLength" : 192,
            "byteOffset" : 1664
        },
        {
            "buffer" : 0,
            "byteLength" : 288,
            "byteOffset" : 1856
        },
        {
            "buffer" : 0,
            "byteLength" : 288,
            "byteOffset" : 2144
        },
        {
            "buffer" : 0,
            "byteLength" : 192,
            "byteOffset" : 2432
        },
        {
            "buffer" : 0,
            "byteLength" : 72,
            "byteOffset" : 2624
        },
        {
            "buffer" : 0,
            "byteLength" : 288,
            "byteOffset" : 2696
        },
        {
            "buffer" : 0,
            "byteLength" : 288,
            "byteOffset" : 2984
        },
        {
            "buffer" : 0,
            "byteLength" : 192,
            "byteOffset" : 3272
        },
        {
            "buffer" : 0,
            "byteLength" : 576,
            "byteOffset" : 3464
        },
        {
            "buffer" : 0,
            "byteLength" : 576,
            "byteOffset" : 4040
        },
        {
            "buffer" : 0,
            "byteLength" : 384,
            "byteOffset" : 4616
        },
        {
            "buffer" : 0,
            "byteLength" : 168,
            "byteOffset" : 5000
        },
        {
            "buffer" : 0,
            "byteLength" : 576,
            "byteOffset" : 5168
        },
        {
            "buffer" : 0,
            "byteLength" : 576,
            "byteOffset" : 5744
        },
        {
            "buffer" : 0,
            "byteLength" : 384,
            "byteOffset" : 6320
        },
        {
            "buffer" : 0,
            "byteLength" : 48,
            "byteOffset" : 6704
        },
        {
            "buffer" : 0,
            "byteLength" : 48,
            "byteOffset" : 6752
        },
        {
            "buffer" : 0,
            "byteLength" : 32,
            "byteOffset" : 6800
        },
        {
            "buffer" : 0,
            "byteLength" : 12,
            "byteOffset" : 6832
        },
        {
            "buffer" : 0,
            "byteLength" : 48,
            "byteOffset" : 6844
        },
        {
            "buffer" : 0,
            "byteLength" : 48,
            "byteOffset" : 6892
        },
        {
            "buffer" : 0,
            "byteLength" : 32,
            "byteOffset" : 6940
        },
        {
            "buffer" : 0,
            "byteLength" : 12,
            "byteOffset" : 6972
        }
    ],
    "buffers" : [
        {
            "byteLength" : 6984,
            "uri" : "data:application/octet-stream;base64,"
        }
    ]
}
